<?xml version="1.0" encoding="iso-8859-1"?>
<!-- Generator: Adobe Illustrator 18.1.1, SVG Export Plug-In . SVG Version: 6.00 Build 0)  -->
<svg version="1.1" id="Capa_1" xmlns="http://www.w3.org/2000/svg" xmlns:xlink="http://www.w3.org/1999/xlink" x="0px" y="0px"
	 viewBox="0 0 479.4 479.4" style="enable-background:new 0 0 479.4 479.4;" xml:space="preserve">
<g>
	<g>
		<path d="M54.967,254.575L43.35,319.742c-1.133,6.517,1.417,13.033,6.8,16.717c2.833,2.267,6.517,3.117,9.917,3.117
			c2.833,0,5.667-0.567,7.933-1.983l68-36.55c14.733,63.75,85.567,112.2,170.283,112.2c5.95,0,11.9-0.283,17.85-0.85l87.55,47.033
			c2.55,1.417,5.383,1.983,7.933,1.983c3.4,0,7.083-1.133,9.917-3.117c5.383-3.683,7.933-10.2,6.8-16.717l-11.617-65.167
			c34.85-25.783,54.683-61.483,54.683-99.733c0-63.467-55.817-118.717-133.733-133.167C338.3,73.525,263.783,17.992,173.117,17.992
			C77.633,17.992,0,79.192,0,154.558C0.283,193.092,20.117,229.075,54.967,254.575z M445.683,276.675
			c0,29.75-17.567,58.083-48.45,77.633c-5.667,3.683-8.783,10.483-7.65,17.283l7.367,41.367l-61.2-32.867
			c-3.117-1.7-6.517-2.267-9.917-1.983c-6.517,0.567-13.317,1.133-19.55,1.133c-69.983,0-128.067-38.25-137.7-87.833
			c1.417,0,3.117,0,4.533,0c85.567,0,156.683-49.3,170.567-113.617C403.467,190.258,445.683,230.775,445.683,276.675z M173.4,52.275
			c76.783,0,139.117,45.9,139.117,102.567S250.183,257.408,173.4,257.408c-6.233,0-13.033-0.283-19.55-1.133
			c-3.4-0.283-6.8,0.283-9.917,1.983l-61.2,32.867l7.367-41.367c1.133-6.8-1.7-13.6-7.65-17.283
			C51.567,212.925,34,184.592,34,154.842C34.283,98.458,96.617,52.275,173.4,52.275z"/>
	</g>
</g>
<g>
</g>
<g>
</g>
<g>
</g>
<g>
</g>
<g>
</g>
<g>
</g>
<g>
</g>
<g>
</g>
<g>
</g>
<g>
</g>
<g>
</g>
<g>
</g>
<g>
</g>
<g>
</g>
<g>
</g>
</svg>
