<?xml version="1.0" encoding="iso-8859-1"?>
<!-- Generator: Adobe Illustrator 19.0.0, SVG Export Plug-In . SVG Version: 6.00 Build 0)  -->
<svg version="1.1" id="Capa_1" xmlns="http://www.w3.org/2000/svg" xmlns:xlink="http://www.w3.org/1999/xlink" x="0px" y="0px"
	 viewBox="0 0 463 463" style="enable-background:new 0 0 463 463;" xml:space="preserve">
<path d="M381.454,332.115l-55.657-23.971c-0.901-6.508-4.505-12.413-10.128-16.206C337.33,285.418,383,268.26,383,239.5
	c0-42.624-5.032-86.58-14.956-130.648c-6.939-30.809-24.399-58.631-49.166-78.342C294.158,10.835,263.127,0,231.5,0
	s-62.658,10.835-87.378,30.51c-24.767,19.711-42.227,47.533-49.166,78.342C85.032,152.92,80,196.876,80,239.5
	c0,28.76,45.669,45.917,67.33,52.438c-5.622,3.794-9.227,9.698-10.127,16.206l-55.657,23.971C61.167,340.893,48,360.9,48,383.089
	V439.5c0,12.958,10.542,23.5,23.5,23.5h320c12.958,0,23.5-10.542,23.5-23.5v-56.411C415,360.9,401.833,340.893,381.454,332.115z
	 M350.158,370.104l-24.477,6.119c-2.207,0.552-4.044,2.075-4.995,4.143c-0.951,2.066-0.912,4.453,0.106,6.488l14.484,28.97
	L322.24,448h-42.589l6.531-78.373c6.324,3.25,13.54,7.285,21.301,12.207c1.221,0.774,2.617,1.166,4.017,1.166
	c1.12,0,2.243-0.251,3.283-0.757c3.712-1.808,4.07-4.981,4.385-7.782l5.6-50.427l13.942,6.005L350.158,370.104z M239,448v-59.999
	l27.153-27.528c1.538,0.606,3.394,1.363,5.548,2.293L264.599,448H239z M198.401,448l-7.103-85.234
	c2.493-1.076,4.59-1.923,6.248-2.567L224,387.018V448H198.401z M140.518,448l-12.807-32.152l14.497-28.993
	c1.018-2.035,1.057-4.422,0.106-6.488c-0.951-2.067-2.788-3.591-4.995-4.143l-24.538-6.134l11.039-39.849l14.411-6.207l5.6,50.427
	c0.315,2.801,0.673,5.975,4.385,7.782c1.04,0.506,2.163,0.757,3.283,0.757c1.4,0,2.796-0.392,4.017-1.166
	c7.761-4.922,14.977-8.956,21.301-12.207L183.349,448H140.518z M152.022,312.313c-0.349-3.148,1.083-6.203,3.737-7.973l8.832-5.888
	l24.48,48.961c-7.014,2.862-18.096,7.869-31.426,15.59c-1.176-10.565-3.108-27.978-5.616-50.618
	c-0.002-0.024-0.005-0.047-0.008-0.071C152.022,312.314,152.022,312.314,152.022,312.313z M255,173.217
	c13.507-3.256,27.493-3.256,41,0v24.356c-13.508,3.256-27.492,3.256-41,0V173.217z M305.706,160.332
	c-19.761-6.08-40.65-6.08-60.411,0C242.147,161.3,240,164.207,240,167.5v2.097c-2.638-1.027-5.503-1.597-8.5-1.597
	s-5.862,0.57-8.5,1.597V167.5c0-3.293-2.147-6.2-5.294-7.168c-19.761-6.08-40.65-6.08-60.411,0C154.147,161.3,152,164.207,152,167.5
	v0.5h-16.203c2.073-20.275,8.215-39.33,18.116-55.982c35.422,16.438,122.862,33.463,170.074,37.873
	c1.435,6.017,2.476,12.065,3.142,18.109H311v-0.5C311,164.207,308.853,161.3,305.706,160.332z M167,173.217
	c13.507-3.256,27.493-3.256,41,0v24.356c-13.508,3.256-27.492,3.256-41,0V173.217z M135.008,183H152v20.29
	c0,3.293,2.147,6.2,5.295,7.169c9.88,3.039,20.042,4.559,30.205,4.559s20.325-1.52,30.205-4.559
	c3.147-0.969,5.295-3.876,5.295-7.169V191.5c0-4.687,3.813-8.5,8.5-8.5s8.5,3.813,8.5,8.5v11.79c0,3.293,2.147,6.2,5.295,7.169
	c9.88,3.039,20.042,4.559,30.205,4.559s20.325-1.52,30.205-4.559c3.147-0.969,5.295-3.876,5.295-7.169V183h16.992
	c0.001,0.167,0.008,0.333,0.008,0.5c0,66.444-43.29,120.5-96.5,120.5S135,249.944,135,183.5
	C135,183.333,135.007,183.167,135.008,183z M310.978,312.313c0,0.002,0,0.003-0.001,0.005c-0.002,0.022-0.005,0.044-0.007,0.067
	c-2.508,22.641-4.44,40.055-5.616,50.62c-13.331-7.721-24.412-12.728-31.426-15.59l24.48-48.961l8.833,5.889
	C309.895,306.11,311.327,309.165,310.978,312.313z M231.985,373.754l-26.309-26.672L185.635,307c13.996,7.707,29.526,12,45.865,12
	s31.868-4.293,45.865-12l-20.573,41.146c-0.131,0.263-0.244,0.533-0.342,0.806L231.985,373.754z M95,239.5
	c0-41.517,4.909-84.364,14.59-127.354c6.19-27.485,21.771-52.31,43.873-69.9C175.539,24.676,203.252,15,231.5,15
	s55.961,9.676,78.037,27.246c22.102,17.591,37.683,42.415,43.873,69.9C363.091,155.136,368,197.983,368,239.5
	c0,9.214-11.159,19.367-31.422,28.59c-9,4.096-18.096,7.218-24.737,9.267C331.126,252.988,343,219.899,343,183.5
	c0-14.177-1.965-28.515-5.841-42.615c-0.838-3.049-3.5-5.245-6.653-5.489c-64.764-5.015-151.348-26.94-173.551-38.593
	c-1.086-0.57-2.332-0.844-3.521-0.859l-3.071,0.014c-2.517,0.017-4.857,1.294-6.232,3.401C128.344,123.553,120,152.648,120,183.5
	c0,36.436,11.899,69.555,31.219,93.931C128.216,270.352,95,255.637,95,239.5z M63,439.5v-56.411
	c0-16.191,9.609-30.792,24.479-37.196l18.667-8.04l-9.875,35.645c-0.54,1.948-0.27,4.032,0.749,5.779
	c1.019,1.747,2.699,3.009,4.661,3.499l22.929,5.732l-11.818,23.637c-0.957,1.913-1.051,4.143-0.26,6.13L124.372,448H71.5
	C66.813,448,63,444.187,63,439.5z M400,439.5c0,4.687-3.813,8.5-8.5,8.5h-53.076l12.027-29.684c0.809-1.996,0.72-4.244-0.243-6.171
	l-11.818-23.637l22.929-5.732c1.972-0.493,3.659-1.766,4.676-3.525s1.275-3.857,0.717-5.812L356.5,337.701l19.02,8.192
	C390.391,352.297,400,366.897,400,383.089V439.5z"/>
<g>
</g>
<g>
</g>
<g>
</g>
<g>
</g>
<g>
</g>
<g>
</g>
<g>
</g>
<g>
</g>
<g>
</g>
<g>
</g>
<g>
</g>
<g>
</g>
<g>
</g>
<g>
</g>
<g>
</g>
</svg>
